<?xml version="1.0" encoding="UTF-8"?><svg id="a" xmlns="http://www.w3.org/2000/svg" viewBox="0 0 319.54 199.29"><defs><style>.c{fill:#e30613;fill-rule:evenodd;}.d{fill:#1d1d1b;}</style></defs><g id="b"><path class="c" d="M230.94,137.17c.37-.56,.73-1.12,1.08-1.69,.64-1.02,1.23-2.08,1.83-3.12s1.25-2.19,1.91-3.27c.59-.96,1.19-1.91,1.84-2.84,.61-.87,1.26-1.71,1.95-2.51,.89-1.05,1.84-2.04,2.81-3.01,.69-.69,1.4-1.36,2.12-2.01,1.31-1.19,2.67-2.31,4.04-3.44,.65-.46,1.3-.93,2.02-1.24,.17-.07,.33-.13,.49-.24,.28-.18,.52-.5,.56-.8,.06-.53-.54-1.01-1.08-1.37s-1.02-.62-1.53-.86c-.69-.32-1.45-.63-2.21-.86-1.17-.36-2.35-.59-3.54-.81-.55-.03-1.11-.06-1.66-.04-.71,.03-1.42,.14-2.11,.33-.87,.24-1.71,.6-2.52,1-1.34,.67-2.61,1.46-3.79,2.37-1.17,.9-2.25,1.93-3.18,3.07-1.12,1.39-2.02,2.96-2.65,4.64-1.11,2.92-1.45,6.18-2.5,8.95-.85,2.24-2.16,4.16-4.35,6.09-1.26,1.11-2.82,2.21-2.54,3.48,.12,.54,.57,1.11,1.09,1.49,.48,.35,1.02,.52,1.57,.67,1.07,.28,2.21,.44,3.29,.27,.93-.15,1.82-.54,2.7-.9,.51-.21,1.02-.41,1.51-.67,.55-.28,1.07-.63,1.51-1.04,.52-.49,.95-1.07,1.37-1.66m32.5-11.63c-.41-.86-.82-1.72-1.28-2.55-.96-1.72-2.17-3.33-3.59-4.7-.92-.89-1.92-1.68-2.93-2.47-.84,.16-1.68,.32-2.47,.6-2.17,.75-3.98,2.36-5.73,3.96-2.27,2.07-4.46,4.14-6.28,6.48-2.48,3.18-4.28,6.86-6.48,10.46-1.26,2.05-2.64,4.08-4.72,5.21-1.28,.69-2.82,1.05-3.78,2.11-.38,.42-.67,.95-.8,1.51-.19,.81-.03,1.68,.36,2.46,.16,.33,.37,.64,.65,.83,.38,.26,.9,.28,1.42,.3,10.69-4.13,22.43-4.69,33.47-1.58,.27,.07,.54,.14,.82,.18,1,.16,2.09,0,2.95-.56,.46-.3,.86-.7,1.1-1.18,.39-.77,.35-1.7,.43-2.6,.1-1.13,.38-2.21,.77-3.25,.31-.83,.69-1.64,.83-2.51,.12-.73,.08-1.5-.12-2.21-.09-.33-.22-.66-.35-.98-.13-.05-.26-.11-.4-.16-2.76-1.06-5.84-.82-8.88-.44-4.53,.56-8.98,1.42-13.02,2.36-.31,.07-.62,.14-1.01,.13-1.05-.05-2.68-.73-2.42-1.23,.11-.21,.55-.38,1-.55,1.84-.6,3.68-1.2,5.54-1.67,2.66-.67,5.36-1.07,8.19-1.15s5.59,.14,7.87-1.43c.21-.14,.41-.3,.53-.51,.21-.36,.15-.85,.03-1.29-.15-.52-.38-.96-.62-1.41-.37-.71-.73-1.44-1.09-2.17Z"/></g><g><path class="d" d="M102.09,81.34c-5.06,4.86-20.55,20.24-37.18,20.24-8.26,0-17.76-3.41-17.76-16.41,0-24.27,30.15-49.88,50.29-49.88,8.06,0,11.15,3.72,11.15,8.06,0,10.12-11.77,22.51-23.13,22.51-4.23,0-6.09-1.24-6.09-2.58,0-.82,1.14-1.65,2.06-1.65,1.56,0,2.17,2.37,6.72,2.37,7.64,0,18.69-11.15,18.69-19.83,0-3.51-2.17-6.81-8.47-6.81-17.67,0-44.31,25.92-44.31,46.88,0,11.05,6.3,14.15,13.53,14.15,15.08,0,29.33-13.22,33.97-17.66l.52,.61Z"/><path class="d" d="M118.44,75.87c3.2,0,6.09-1.75,7.85-2.88v1.03c-2.17,1.56-4.54,3.1-9.39,3.62-.83,5.68-7.03,12.71-12.92,12.71-2.47,0-4.54-1.35-4.54-4.34,0-5.26,6.1-10.64,11.36-11.87,.51-.62,1.65-1.14,2.37-1.14,3.3,0,2.79,2.88,5.27,2.88Zm-3.51,2.58c0-.2,0-.51-.1-.71-2.68,0-3.41-1.03-3.72-1.97-3.62,1.03-7.13,6.82-7.13,10.23,0,1.55,.62,2.58,2.07,2.58,3.2,0,8.88-5.79,8.88-10.12Z"/><path class="d" d="M137.35,84.04c0-1.45,.31-3,.82-4.14-5.26,6-9.29,9.4-12.71,9.4-1.75,0-3.82-1.45-3.82-3.51,0-3.51,5.47-8.36,5.47-10.84,0-.41-.31-.82-.82-.82-.31,0-.83,.41-.83,.41v-1.03c1.14-.72,2.28-1.45,3.83-1.45,1.45,0,2.89,1.45,2.89,2.89,0,2.99-5.06,7.43-5.06,10.54,0,.72,.51,1.14,1.14,1.14,1.76,0,4.24-2.27,9.19-7.85,2.37-2.68,3.41-4.13,4.65-4.13s2.47,.82,2.47,1.96c0,1.03-.2,1.35-.92,2.17-1.35,1.66-1.66,3.1-1.66,5.06,0,1.86,1.14,3.3,3.83,3.3s6.81-1.96,11.46-6.4l.51,.61c-5.16,4.86-10.12,7.64-14.97,7.64-3.1,0-5.47-1.65-5.47-4.95Z"/><path class="d" d="M157.71,81.45l-.51-.62,2.37-2.38c-.82-.71-1.86-1.96-1.86-3.3,0-2.16,2.79-4.23,5.06-4.23,1.14,0,1.86,.72,1.86,1.86,0,1.03-.41,2.07-2.27,4.13,.72,1.24,3.82,1.86,3.82,4.13,0,1.56-1.45,3.73-1.45,6.2,0,1.76,1.35,2.58,3.51,2.58,1.86,0,4.54-.82,7.64-2.58l.41,.83c-4.14,2.06-7.54,3.72-10.95,3.72s-5.16-1.66-5.16-3.51c0-2.78,2.48-4.34,2.48-6.71,0-.93-1.45-1.76-2.48-2.58l-2.48,2.48Z"/><path class="d" d="M201.71,81.34c-5.16,4.86-10.95,9.81-18.18,9.81-4.74,0-8.16-1.96-8.16-6.2,0-5.99,6.82-11.15,11.05-11.15,2.89,0,3.72,1.55,3.72,2.99,0,3.2-5.99,7.64-9.7,9.7,.21,1.35,1.55,3,4.85,3,5.79,0,11.26-4.34,15.91-8.78l.51,.61Zm-21.48,4.14c3.1-1.66,8.37-5.68,8.37-8.47,0-.93-.61-1.45-1.45-1.45-3.09,0-6.92,5.36-6.92,9.91Z"/><path class="d" d="M235.49,81.34c-5.16,4.86-10.02,7.64-14.97,7.64-3,0-5.37-1.65-5.37-4.95,0-1.45,.31-3,.82-4.14-5.26,6-10.64,9.91-14.04,9.91-1.76,0-3.41-1.34-3.41-3.41,0-4.54,6.3-8.16,6.3-13.42,0-.62,.41-1.45,1.03-1.45,1.45,0,3.61,1.34,3.61,3.3,0,3.3-5.47,7.43-5.47,11.05,0,.61,.52,1.14,1.24,1.14,1.35,0,5.47-2.99,10.33-8.68,2.37-2.68,3.41-3.82,4.65-3.82,1.14,0,2.17,.72,2.17,1.86,0,1.03-.42,1.76-1.03,2.58-1.24,1.76-1.86,3.09-1.86,5.16,0,1.76,1.03,2.99,3.62,2.99s7.12-1.96,11.87-6.4l.51,.61Z"/><path class="d" d="M237.27,78.45c-.82-.61-1.76-1.55-1.76-2.88,0-2.28,2.69-4.34,4.96-4.34,1.14,0,1.86,.82,1.86,1.96,0,.93-.82,2.38-2.58,4.44,1.03,2.38,3.93,2.07,3.93,4.34,0,1.35-1.45,2.48-1.45,5.06,0,.92,.82,1.55,1.86,1.55,4.13,0,8.47-3.41,13.22-7.85l.51,.61c-5.16,4.86-11.05,9.5-16.01,9.5-2.37,0-4.33-1.24-4.33-3.3,0-2.48,2.27-4.13,2.27-6.2,0-1.03-.62-1.24-1.86-2.37l-2.48,2.48-.51-.62,2.37-2.38Z"/><path class="d" d="M255.77,82.07c2.17-1.96,3.62-3.62,5.37-5.47,2.58-2.78,3.92-5.78,5.05-5.78,1.56,0,2.07,1.24,2.07,2.27,0,1.76-3.62,2.78-3.62,4.34,0,2.89,1.66,4.13,1.66,6.61,0,4.44-3.51,6.09-6.41,6.09-3.82,0-6.92-2.06-6.92-5.26,0-1.45,1.35-2.79,2.79-2.79Zm6.3,1.45c0-2.58-.51-3.72-.51-5.99,0,0-3.1,3.2-5.16,5.06,.2,.2,.41,.61,.41,1.03,0,1.24-1.03,1.44-1.03,2.88,0,1.03,1.03,2.07,2.48,2.07,2.17,0,3.82-2.58,3.82-5.06Z"/></g><g><path class="d" d="M73.62,145.97c-1.39,.37-2.7,.37-4,.37-4.75,0-7.26-2.8-8.38-6.8-5.3,5.21-9.68,8.47-12.19,8.47-1.58,0-2.7-.93-2.7-2.8,0-6.61,8.28-12.38,12.56-12.38,.56,0,1.67,.09,2.14,.28,1.58-10.98,7.81-22.34,12.84-22.34,1.11,0,2.6,1.12,2.6,3.17,0,5.87-6.61,15.91-11.91,22.15,0,3.81,1.49,9.31,7.17,9.31,.28,0,.93-.09,1.49-.19l.37,.75Zm-23.17-1.4c0,.65,.28,.93,.83,.93,1.49,0,4.75-2.05,9.78-7.07-.19-.93-.19-2.33-.19-4.19-4.46,0-10.42,5.77-10.42,10.33Zm14.14-9.96c4.93-6.14,10.8-15.63,10.8-20.29,0-.65-.37-1.21-.74-1.21-3.35,0-8.93,12.01-10.06,21.5Z"/><path class="d" d="M96.53,139.92c-4.65,4.38-9.87,8.84-16.38,8.84-4.27,0-7.35-1.77-7.35-5.59,0-5.4,6.15-10.05,9.96-10.05,2.61,0,3.35,1.39,3.35,2.7,0,2.89-5.4,6.89-8.75,8.75,.19,1.21,1.39,2.71,4.37,2.71,5.21,0,10.15-3.91,14.34-7.91l.46,.55Zm-19.36,3.73c2.8-1.49,7.54-5.12,7.54-7.63,0-.84-.55-1.3-1.3-1.3-2.79,0-6.24,4.83-6.24,8.93Z"/><path class="d" d="M94.77,140.57c1.96-1.77,3.26-3.26,4.84-4.93,2.33-2.51,3.53-5.21,4.55-5.21,1.4,0,1.86,1.11,1.86,2.05,0,1.58-3.26,2.51-3.26,3.91,0,2.61,1.49,3.72,1.49,5.96,0,4-3.17,5.49-5.77,5.49-3.44,0-6.24-1.86-6.24-4.74,0-1.3,1.21-2.52,2.52-2.52Zm5.68,1.3c0-2.33-.46-3.35-.46-5.4,0,0-2.8,2.89-4.65,4.56,.18,.18,.37,.55,.37,.93,0,1.11-.93,1.3-.93,2.6,0,.93,.93,1.86,2.24,1.86,1.96,0,3.44-2.33,3.44-4.56Z"/></g><g><path class="d" d="M153.89,139.92c-4.65,4.38-8.56,6.24-13.03,6.24-1.86,1.58-3.35,2.33-5.4,2.33-1.77,0-3.36-1.11-3.36-2.51,0-.75,.56-1.21,1.49-1.21,.65,0,1.67,.09,3.91,.28,2.61-2.52,4.65-6.33,4.65-8.65,0-.75-.37-1.21-1.02-1.21-1.77,0-5.4,2.61-8.56,7.63-.47,.74-.93,1.39-1.49,1.39-1.39,0-1.77-1.49-1.77-3.16,0-.65,.09-1.3,.09-1.96-1.58,1.2-2.51,1.49-2.98,1.49-.55,0-1.39-.65-1.39-1.2,0-.37,.19-.47,.46-.47,.93,0,2.33-.28,4.19-1.49,1.96-14.99,10.89-28.76,16.1-28.76,2.98,0,4.56,2.24,4.56,4.37,0,6.89-8.66,16.85-17.41,24.02l-.28,3.72c2.7-4,7.45-7.54,10.24-7.54,1.77,0,3.17,1.21,3.17,2.98,0,2.52-1.86,6.43-4.38,9.03,3.36,0,7.54-1.86,11.73-5.86l.46,.55Zm-20.75-4.18c7.44-5.96,15.44-16.1,15.44-21.97,0-1.49-.83-2.05-1.96-2.05-3.72,0-11.35,11.35-13.49,24.02Z"/><path class="d" d="M168.51,134.99c2.88,0,5.49-1.58,7.07-2.6v.92c-1.96,1.4-4.09,2.8-8.46,3.26-.75,5.12-6.34,11.45-11.64,11.45-2.23,0-4.09-1.21-4.09-3.91,0-4.74,5.49-9.59,10.24-10.7,.46-.56,1.49-1.02,2.14-1.02,2.98,0,2.52,2.6,4.75,2.6Zm-3.17,2.33c0-.18,0-.46-.09-.64-2.42,0-3.07-.93-3.35-1.77-3.26,.93-6.43,6.15-6.43,9.22,0,1.39,.56,2.33,1.86,2.33,2.89,0,8-5.21,8-9.12Z"/><path class="d" d="M191.79,139.92c-4.65,4.38-9.22,7.63-13.69,7.63-3.35,0-5.4-1.58-5.4-4.18,0-3.73,3.63-7.45,3.63-9.22,0-.37-.28-.65-.65-.65-.28,0-.84,.28-.84,.28v-.93c1.02-.65,2.14-1.3,3.45-1.3s2.61,1.3,2.61,2.61c0,2.7-3.54,6.14-3.54,9.4,0,1.4,.83,2.33,2.61,2.33,3.07,0,7.07-2.51,11.35-6.51l.47,.55Zm-6.52-17.5c0,1.4-1.58,3.08-3.07,3.08-.84,0-1.77-.74-1.77-1.67,0-1.67,1.96-3.45,3.08-3.45,.92,0,1.77,.84,1.77,2.05Z"/><path class="d" d="M190.03,140.57c1.96-1.77,3.26-3.26,4.84-4.93,2.33-2.51,3.53-5.21,4.55-5.21,1.4,0,1.86,1.11,1.86,2.05,0,1.58-3.26,2.51-3.26,3.91,0,2.61,1.49,3.72,1.49,5.96,0,4-3.17,5.49-5.77,5.49-3.44,0-6.24-1.86-6.24-4.74,0-1.3,1.21-2.52,2.52-2.52Zm5.68,1.3c0-2.33-.46-3.35-.46-5.4,0,0-2.8,2.89-4.65,4.56,.18,.18,.37,.55,.37,.93,0,1.11-.93,1.3-.93,2.6,0,.93,.93,1.86,2.24,1.86,1.96,0,3.44-2.33,3.44-4.56Z"/></g></svg>